Coordinates
version=1
nRows=20
nColumns=32
inDegrees=yes

Units are S.I. units (second, meters, Newtons, ...)
If the header above contains a line with 'inDegrees', this indicates whether rotational values are in degrees (yes) or radians (no).

endheader
time	pelvis_tilt	pelvis_list	pelvis_rotation	pelvis_tx	pelvis_ty	pelvis_tz	hip_flexion_r	hip_adduction_r	hip_rotation_r	knee_angle_r	knee_adduction_r	med_cond_adduction_r	lat_cond_adduction_r	patella_r_constrained_knee_angle	ankle_angle_r	subtalar_angle_r	mtp_angle_r	hip_flexion_l	hip_adduction_l	hip_rotation_l	knee_angle_l	knee_adduction_l	med_cond_adduction_l	lat_cond_adduction_l	patella_l_constrained_knee_angle	ankle_angle_l	subtalar_angle_l	mtp_angle_l	lumbar_extension	lumbar_bending	lumbar_rotation
      0.98500000	      3.59181331	      6.93267047	     -4.75870645	      0.63463698	      0.94201902	      0.21841671	     20.18105456	    -16.66448802	     -7.01592656	    -67.69677631	      3.10995770	      0.00000000	      0.00000000	     -1.18153164	     -5.60516963	     -6.17809877	      0.00000000	     -1.10989293	      7.56148324	    -18.95016245	     -6.80149532	      0.11699724	     -0.00000000	     -0.00000000	     -0.11870849	      0.47672389	      4.36033037	      0.00000000	     -2.31791231	     -7.54298022	      3.55683864
      0.99000000	      3.30147286	      7.27166823	     -4.73739137	      0.64087283	      0.94141348	      0.21828284	     21.34979653	    -16.85261238	     -6.05667006	    -67.23694319	      3.93063709	     -0.00000000	     -0.00000000	     -1.17350604	     -4.77765955	     -5.99056277	      0.00000000	     -1.42963309	      8.02197167	    -19.05371401	     -6.31496165	      0.11908807	      0.00000000	      0.00000000	     -0.11021687	      0.52065916	      4.53308407	     -0.00000000	     -2.02872154	     -7.13790765	      4.99375224
      0.99500000	      3.19255450	      7.22898328	     -4.65079506	      0.64695572	      0.94138406	      0.21803340	     22.10234020	    -16.58975599	     -5.42261693	    -66.46063725	      4.59766841	     -0.00000000	     -0.00000000	     -1.15995694	     -4.22693627	     -6.01622594	      0.00000000	     -1.88311718	      7.97580900	    -19.25055088	     -6.08683700	      0.23163913	     -0.00000000	     -0.00000000	     -0.10623535	      0.78489284	      5.00722850	     -0.00000000	     -1.94035619	     -7.19982137	      4.76278697
      1.00000000	      3.16054211	      7.06393725	     -4.32971388	      0.65313513	      0.94158883	      0.21719871	     22.55949272	    -16.32365086	     -5.19470770	    -65.48424593	      5.16593129	     -0.00000000	     -0.00000000	     -1.14291570	     -3.73334047	     -6.02776955	      0.00000000	     -2.54434530	      7.91946030	    -18.84988154	     -5.60021534	      0.26321212	      0.00000000	      0.00000000	     -0.09774220	      0.85547255	      4.95512142	      0.00000000	     -2.02539245	     -6.85804977	      4.62646895
      1.00500000	      3.15303806	      6.90171797	     -4.04428018	      0.65927711	      0.94175434	      0.21650594	     22.97456420	    -16.03527442	     -4.94180195	    -64.42801302	      5.70832944	      0.00000000	      0.00000000	     -1.12448096	     -3.25000449	     -6.10688859	     -0.00000000	     -3.19444350	      7.81655029	    -18.53401425	     -5.20850008	      0.35449431	     -0.00000000	     -0.00000000	     -0.09090548	      0.98358609	      4.94281307	     -0.00000000	     -2.13649095	     -6.59673539	      4.43368718
      1.01000000	      3.11060136	      6.76306911	     -3.89631476	      0.66538604	      0.94172348	      0.21615084	     23.48163744	    -15.68284901	     -4.54323466	    -63.33650544	      6.20224532	     -0.00000000	     -0.00000000	     -1.10543056	     -2.87379663	     -6.25784385	      0.00000000	     -3.68677126	      7.64472623	    -18.67903291	     -5.07482654	      0.47960895	      0.00000000	     -0.00000000	     -0.08857243	      1.31576549	      5.45940845	      0.00000000	     -2.15967030	     -6.50631884	      4.17025642
      1.01500000	      3.08538126	      6.62618756	     -3.57145056	      0.67153904	      0.94172019	      0.21534924	     23.85257055	    -15.45115447	     -4.37953428	    -62.13865216	      6.65567668	      0.00000000	      0.00000000	     -1.08452407	     -2.49684678	     -6.34864668	      0.00000000	     -4.27785539	      7.57166335	    -18.32743813	     -4.74325059	      0.52594185	     -0.00000000	     -0.00000000	     -0.08278534	      1.47316462	      5.44820090	     -0.00000000	     -2.24199980	     -6.27238400	      3.93613677
      1.02000000	      3.19644564	      6.25287241	     -3.07136711	      0.67773183	      0.94209808	      0.21410948	     23.85393576	    -15.05599904	     -4.59080239	    -60.70241709	      7.01073795	      0.00000000	      0.00000000	     -1.05945704	     -2.22969286	     -6.51587948	     -0.00000000	     -5.15022680	      7.31615458	    -17.46104636	     -4.15460682	      0.52646906	     -0.00000000	      0.00000000	     -0.07251157	      1.46940020	      5.03469822	      0.00000000	     -2.57257295	     -5.54808188	      3.71017112
      1.02500000	      3.18426857	      6.10915229	     -2.78198991	      0.68385358	      0.94199335	      0.21343948	     24.15808093	    -14.78766884	     -4.47242223	    -59.33273391	      7.33458092	     -0.00000000	     -0.00000000	     -1.03555156	     -1.96169062	     -6.63969750	      0.00000000	     -5.66173773	      7.14959553	    -17.30450125	     -4.03977654	      0.64086691	      0.00000000	      0.00000000	     -0.07050740	      1.77727476	      5.19671237	     -0.00000000	     -2.64883779	     -5.46026131	      3.29511916
      1.03000000	      3.12935277	      6.11352392	     -2.41170071	      0.69003570	      0.94164214	      0.21255180	     24.51172432	    -14.78286385	     -4.37978356	    -58.00444699	      7.70634259	      0.00000000	      0.00000000	     -1.01236858	     -1.63457987	     -6.71297430	      0.00000000	     -6.16336672	      7.21773937	    -16.90224658	     -3.79717703	      0.63045892	     -0.00000000	     -0.00000000	     -0.06627324	      1.96598108	      5.21147723	     -0.00000000	     -2.69024996	     -5.34413829	      3.08943641
      1.03500000	      3.29688003	      5.68122711	     -1.89534740	      0.69615090	      0.94199376	      0.21128512	     24.32050923	    -14.31119333	     -4.75173766	    -56.26432940	      7.86475821	      0.00000000	      0.00000000	     -0.98199780	     -1.63039580	     -7.05824672	      0.00000000	     -6.91294045	      6.77101267	    -16.33972998	     -3.60243010	      0.70341988	      0.00000000	      0.00000000	     -0.06287427	      2.18951584	      5.07749359	     -0.00000000	     -3.04373013	     -4.87821546	      2.31153305
      1.04000000	      3.26725471	      5.70288990	     -1.65418064	      0.70232343	      0.94149588	      0.21077640	     24.64850118	    -14.23693789	     -4.63568332	    -54.84489751	      8.07206084	      0.00000000	      0.00000000	     -0.95722404	     -1.40215791	     -7.13675948	     -0.00000000	     -7.34628340	      6.75954559	    -16.32983832	     -3.58824151	      0.77352207	      0.00000000	      0.00000000	     -0.06262663	      2.60218783	      5.52725821	      0.00000000	     -3.09852081	     -4.75816572	      2.31642109
      1.04500000	      3.25288599	      5.64785653	     -1.16822677	      0.70849521	      0.94110037	      0.20958729	     24.79761104	    -14.23739689	     -4.83796123	    -53.27717100	      8.24394039	      0.00000000	      0.00000000	     -0.92986205	     -1.27922162	     -7.26024640	      0.00000000	     -7.89416486	      6.77600165	    -15.65006863	     -3.33117488	      0.72074766	     -0.00000000	     -0.00000000	     -0.05813997	      2.76949956	      5.24755781	     -0.00000000	     -3.20903773	     -4.56664075	      1.96143315
      1.05000000	      3.30343486	      5.49390679	     -0.77603392	      0.71463269	      0.94081051	      0.20869082	     24.82506931	    -14.03482400	     -5.01981836	    -51.56832796	      8.33303423	     -0.00000000	     -0.00000000	     -0.90003711	     -1.28645960	     -7.60088739	      0.00000000	     -8.40895266	      6.57127734	    -15.40156716	     -3.33356585	      0.77849403	     -0.00000000	     -0.00000000	     -0.05818170	      3.15495582	      5.49651567	     -0.00000000	     -3.38237284	     -4.36460068	      1.50340800
      1.05500000	      3.37813649	      5.29777751	     -0.31655484	      0.72086760	      0.94054885	      0.20755695	     24.73231025	    -13.85275822	     -5.36075453	    -49.75648625	      8.36992727	     -0.00000000	     -0.00000000	     -0.86841451	     -1.29451859	     -7.78367349	      0.00000000	     -9.03407127	      6.35568867	    -14.89322963	     -3.16016165	      0.82308965	     -0.00000000	     -0.00000000	     -0.05515523	      3.39729170	      5.39836163	      0.00000000	     -3.59789913	     -3.89528929	      1.28925263
      1.06000000	      3.43151243	      5.22776497	      0.25233815	      0.72696457	      0.94014367	      0.20620990	     24.67101811	    -13.87534470	     -5.79517921	    -47.98103858	      8.39950247	      0.00000000	      0.00000000	     -0.83742710	     -1.39078409	     -8.16700685	      0.00000000	     -9.55217017	      6.29906082	    -14.29517057	     -3.11683380	      0.73451207	     -0.00000000	      0.00000000	     -0.05439901	      3.75030422	      5.44024036	     -0.00000000	     -3.77911382	     -3.94729808	      0.34121541
      1.06500000	      3.37933651	      5.30088324	      0.63983851	      0.73316099	      0.93934479	      0.20532434	     24.83234326	    -13.97682889	     -5.98157893	    -46.31232576	      8.42202141	     -0.00000000	     -0.00000000	     -0.80830257	     -1.37997691	     -8.36560181	     -0.00000000	    -10.00257317	      6.39823263	    -13.82553609	     -2.98999866	      0.68079233	      0.00000000	      0.00000000	     -0.05218532	      4.00416558	      5.36176305	     -0.00000000	     -3.82637691	     -3.73405282	      0.38578255
      1.07000000	      3.27475392	      5.41861926	      1.04999379	      0.73926709	      0.93840425	      0.20448255	     25.05378748	    -14.11981123	     -6.23478639	    -44.63481899	      8.36361799	      0.00000000	      0.00000000	     -0.77902455	     -1.44249731	     -8.67582735	     -0.00000000	    -10.33179337	      6.50167668	    -13.40151148	     -2.99780547	      0.65863976	      0.00000000	      0.00000000	     -0.05232158	      4.37231662	      5.42334289	     -0.00000000	     -3.81833858	     -3.79638036	      0.09466431
      1.07500000	      3.36126575	      5.31376904	      1.51178267	      0.74553125	      0.93786671	      0.20331654	     24.87380837	    -14.08108931	     -6.73666960	    -42.72714229	      8.27747027	      0.00000000	      0.00000000	     -0.74572931	     -1.60507946	     -8.94038438	     -0.00000000	    -10.89864425	      6.36293418	    -13.02955808	     -2.97013376	      0.62326745	      0.00000000	      0.00000000	     -0.05183861	      4.71125561	      5.55254293	     -0.00000000	     -4.01558939	     -3.54761674	     -0.36730520
      1.08000000	      3.26304631	      5.46282914	      1.89771792	      0.75169093	      0.93681736	      0.20242457	     25.04511789	    -14.28877026	     -7.03576495	    -41.00797135	      8.19044032	      0.00000000	      0.00000000	     -0.71572412	     -1.67637991	     -9.14962438	     -0.00000000	    -11.23823770	      6.52242069	    -12.67426320	     -2.97235211	      0.53573364	      0.00000000	      0.00000000	     -0.05187733	      5.06095156	      5.67857831	      0.00000000	     -3.99876981	     -3.62760064	     -0.67037245
